<?xml version="1.0" standalone="no"?>
<!DOCTYPE svg PUBLIC "-//W3C//DTD SVG 20010904//EN"
 "http://www.w3.org/TR/2001/REC-SVG-20010904/DTD/svg10.dtd">
<svg version="1.0" xmlns="http://www.w3.org/2000/svg"
 width="1500.000000pt" height="1500.000000pt" viewBox="0 0 1500.000000 1500.000000"
 preserveAspectRatio="xMidYMid meet">
<metadata>
Created by potrace 1.14, written by Peter Selinger 2001-2017
</metadata>
<g transform="translate(0.000000,1500.000000) scale(0.100000,-0.100000)"
fill="#000000" stroke="none">
<path d="M7120 14859 c-1463 -74 -2865 -581 -4035 -1459 -822 -617 -1494
-1379 -2000 -2270 -113 -199 -305 -590 -390 -795 -688 -1661 -749 -3527 -170
-5225 843 -2472 2963 -4330 5520 -4839 498 -99 922 -141 1450 -141 415 0 717
21 1090 76 2050 302 3873 1454 5035 3180 675 1002 1089 2145 1214 3354 53 516
46 1170 -20 1690 -219 1737 -1060 3352 -2359 4528 -1461 1322 -3366 2001
-5335 1901z m730 -4219 l0 -1060 995 0 995 0 0 -655 0 -655 -995 0 -995 0 0
-1172 c0 -1183 7 -1517 36 -1728 34 -249 112 -386 290 -507 194 -132 413 -193
689 -193 389 1 767 114 1148 343 l107 65 0 -658 0 -658 -152 -67 c-452 -200
-827 -310 -1238 -361 -174 -21 -671 -30 -852 -15 -544 47 -998 207 -1361 480
-51 38 -144 122 -207 187 -259 266 -359 491 -411 924 -8 67 -13 576 -16 1728
l-4 1632 -465 0 -464 0 0 589 0 588 78 28 c508 177 912 486 1194 913 226 343
348 702 434 1280 l5 32 594 0 595 0 0 -1060z"/>
</g>
</svg>
